<?xml version="1.0" encoding="utf-8" standalone="no"?>
<!DOCTYPE svg PUBLIC "-//W3C//DTD SVG 1.1//EN"
  "http://www.w3.org/Graphics/SVG/1.1/DTD/svg11.dtd">
<!-- Created with matplotlib (http://matplotlib.org/) -->
<svg height="345.6pt" version="1.1" viewBox="0 0 460.8 345.6" width="460.8pt" xmlns="http://www.w3.org/2000/svg" xmlns:xlink="http://www.w3.org/1999/xlink">
 <defs>
  <style type="text/css">
*{stroke-linecap:butt;stroke-linejoin:round;}
  </style>
 </defs>
 <g id="figure_1">
  <g id="patch_1">
   <path d="M 0 345.6 
L 460.8 345.6 
L 460.8 0 
L 0 0 
z
" style="fill:#ffffff;"/>
  </g>
  <g id="axes_1">
   <g id="patch_2">
    <path d="M 57.6 307.584 
L 414.72 307.584 
L 414.72 41.472 
L 57.6 41.472 
z
" style="fill:#ffffff;"/>
   </g>
   <g id="matplotlib.axis_1">
    <g id="xtick_1">
     <g id="line2d_1">
      <path clip-path="url(#p85a26a053a)" d="M 73.832727 307.584 
L 73.832727 41.472 
" style="fill:none;stroke:#b0b0b0;stroke-linecap:square;stroke-width:0.8;"/>
     </g>
     <g id="line2d_2">
      <defs>
       <path d="M 0 0 
L 0 3.5 
" id="mf19a8c77d9" style="stroke:#000000;stroke-width:0.8;"/>
      </defs>
      <g>
       <use style="stroke:#000000;stroke-width:0.8;" x="73.832727" xlink:href="#mf19a8c77d9" y="307.584"/>
      </g>
     </g>
     <g id="text_1">
      <!-- 0.00 -->
      <defs>
       <path d="M 31.78125 66.40625 
Q 24.171875 66.40625 20.328125 58.90625 
Q 16.5 51.421875 16.5 36.375 
Q 16.5 21.390625 20.328125 13.890625 
Q 24.171875 6.390625 31.78125 6.390625 
Q 39.453125 6.390625 43.28125 13.890625 
Q 47.125 21.390625 47.125 36.375 
Q 47.125 51.421875 43.28125 58.90625 
Q 39.453125 66.40625 31.78125 66.40625 
z
M 31.78125 74.21875 
Q 44.046875 74.21875 50.515625 64.515625 
Q 56.984375 54.828125 56.984375 36.375 
Q 56.984375 17.96875 50.515625 8.265625 
Q 44.046875 -1.421875 31.78125 -1.421875 
Q 19.53125 -1.421875 13.0625 8.265625 
Q 6.59375 17.96875 6.59375 36.375 
Q 6.59375 54.828125 13.0625 64.515625 
Q 19.53125 74.21875 31.78125 74.21875 
z
" id="DejaVuSans-30"/>
       <path d="M 10.6875 12.40625 
L 21 12.40625 
L 21 0 
L 10.6875 0 
z
" id="DejaVuSans-2e"/>
      </defs>
      <g transform="translate(58.24679 325.221812)scale(0.14 -0.14)">
       <use xlink:href="#DejaVuSans-30"/>
       <use x="63.623047" xlink:href="#DejaVuSans-2e"/>
       <use x="95.410156" xlink:href="#DejaVuSans-30"/>
       <use x="159.033203" xlink:href="#DejaVuSans-30"/>
      </g>
     </g>
    </g>
    <g id="xtick_2">
     <g id="line2d_3">
      <path clip-path="url(#p85a26a053a)" d="M 135.586412 307.584 
L 135.586412 41.472 
" style="fill:none;stroke:#b0b0b0;stroke-linecap:square;stroke-width:0.8;"/>
     </g>
     <g id="line2d_4">
      <g>
       <use style="stroke:#000000;stroke-width:0.8;" x="135.586412" xlink:href="#mf19a8c77d9" y="307.584"/>
      </g>
     </g>
     <g id="text_2">
      <!-- 0.05 -->
      <defs>
       <path d="M 10.796875 72.90625 
L 49.515625 72.90625 
L 49.515625 64.59375 
L 19.828125 64.59375 
L 19.828125 46.734375 
Q 21.96875 47.46875 24.109375 47.828125 
Q 26.265625 48.1875 28.421875 48.1875 
Q 40.625 48.1875 47.75 41.5 
Q 54.890625 34.8125 54.890625 23.390625 
Q 54.890625 11.625 47.5625 5.09375 
Q 40.234375 -1.421875 26.90625 -1.421875 
Q 22.3125 -1.421875 17.546875 -0.640625 
Q 12.796875 0.140625 7.71875 1.703125 
L 7.71875 11.625 
Q 12.109375 9.234375 16.796875 8.0625 
Q 21.484375 6.890625 26.703125 6.890625 
Q 35.15625 6.890625 40.078125 11.328125 
Q 45.015625 15.765625 45.015625 23.390625 
Q 45.015625 31 40.078125 35.4375 
Q 35.15625 39.890625 26.703125 39.890625 
Q 22.75 39.890625 18.8125 39.015625 
Q 14.890625 38.140625 10.796875 36.28125 
z
" id="DejaVuSans-35"/>
      </defs>
      <g transform="translate(120.000475 325.221812)scale(0.14 -0.14)">
       <use xlink:href="#DejaVuSans-30"/>
       <use x="63.623047" xlink:href="#DejaVuSans-2e"/>
       <use x="95.410156" xlink:href="#DejaVuSans-30"/>
       <use x="159.033203" xlink:href="#DejaVuSans-35"/>
      </g>
     </g>
    </g>
    <g id="xtick_3">
     <g id="line2d_5">
      <path clip-path="url(#p85a26a053a)" d="M 197.340097 307.584 
L 197.340097 41.472 
" style="fill:none;stroke:#b0b0b0;stroke-linecap:square;stroke-width:0.8;"/>
     </g>
     <g id="line2d_6">
      <g>
       <use style="stroke:#000000;stroke-width:0.8;" x="197.340097" xlink:href="#mf19a8c77d9" y="307.584"/>
      </g>
     </g>
     <g id="text_3">
      <!-- 0.10 -->
      <defs>
       <path d="M 12.40625 8.296875 
L 28.515625 8.296875 
L 28.515625 63.921875 
L 10.984375 60.40625 
L 10.984375 69.390625 
L 28.421875 72.90625 
L 38.28125 72.90625 
L 38.28125 8.296875 
L 54.390625 8.296875 
L 54.390625 0 
L 12.40625 0 
z
" id="DejaVuSans-31"/>
      </defs>
      <g transform="translate(181.75416 325.221812)scale(0.14 -0.14)">
       <use xlink:href="#DejaVuSans-30"/>
       <use x="63.623047" xlink:href="#DejaVuSans-2e"/>
       <use x="95.410156" xlink:href="#DejaVuSans-31"/>
       <use x="159.033203" xlink:href="#DejaVuSans-30"/>
      </g>
     </g>
    </g>
    <g id="xtick_4">
     <g id="line2d_7">
      <path clip-path="url(#p85a26a053a)" d="M 259.093782 307.584 
L 259.093782 41.472 
" style="fill:none;stroke:#b0b0b0;stroke-linecap:square;stroke-width:0.8;"/>
     </g>
     <g id="line2d_8">
      <g>
       <use style="stroke:#000000;stroke-width:0.8;" x="259.093782" xlink:href="#mf19a8c77d9" y="307.584"/>
      </g>
     </g>
     <g id="text_4">
      <!-- 0.15 -->
      <g transform="translate(243.507844 325.221812)scale(0.14 -0.14)">
       <use xlink:href="#DejaVuSans-30"/>
       <use x="63.623047" xlink:href="#DejaVuSans-2e"/>
       <use x="95.410156" xlink:href="#DejaVuSans-31"/>
       <use x="159.033203" xlink:href="#DejaVuSans-35"/>
      </g>
     </g>
    </g>
    <g id="xtick_5">
     <g id="line2d_9">
      <path clip-path="url(#p85a26a053a)" d="M 320.847467 307.584 
L 320.847467 41.472 
" style="fill:none;stroke:#b0b0b0;stroke-linecap:square;stroke-width:0.8;"/>
     </g>
     <g id="line2d_10">
      <g>
       <use style="stroke:#000000;stroke-width:0.8;" x="320.847467" xlink:href="#mf19a8c77d9" y="307.584"/>
      </g>
     </g>
     <g id="text_5">
      <!-- 0.20 -->
      <defs>
       <path d="M 19.1875 8.296875 
L 53.609375 8.296875 
L 53.609375 0 
L 7.328125 0 
L 7.328125 8.296875 
Q 12.9375 14.109375 22.625 23.890625 
Q 32.328125 33.6875 34.8125 36.53125 
Q 39.546875 41.84375 41.421875 45.53125 
Q 43.3125 49.21875 43.3125 52.78125 
Q 43.3125 58.59375 39.234375 62.25 
Q 35.15625 65.921875 28.609375 65.921875 
Q 23.96875 65.921875 18.8125 64.3125 
Q 13.671875 62.703125 7.8125 59.421875 
L 7.8125 69.390625 
Q 13.765625 71.78125 18.9375 73 
Q 24.125 74.21875 28.421875 74.21875 
Q 39.75 74.21875 46.484375 68.546875 
Q 53.21875 62.890625 53.21875 53.421875 
Q 53.21875 48.921875 51.53125 44.890625 
Q 49.859375 40.875 45.40625 35.40625 
Q 44.1875 33.984375 37.640625 27.21875 
Q 31.109375 20.453125 19.1875 8.296875 
z
" id="DejaVuSans-32"/>
      </defs>
      <g transform="translate(305.261529 325.221812)scale(0.14 -0.14)">
       <use xlink:href="#DejaVuSans-30"/>
       <use x="63.623047" xlink:href="#DejaVuSans-2e"/>
       <use x="95.410156" xlink:href="#DejaVuSans-32"/>
       <use x="159.033203" xlink:href="#DejaVuSans-30"/>
      </g>
     </g>
    </g>
    <g id="xtick_6">
     <g id="line2d_11">
      <path clip-path="url(#p85a26a053a)" d="M 382.601152 307.584 
L 382.601152 41.472 
" style="fill:none;stroke:#b0b0b0;stroke-linecap:square;stroke-width:0.8;"/>
     </g>
     <g id="line2d_12">
      <g>
       <use style="stroke:#000000;stroke-width:0.8;" x="382.601152" xlink:href="#mf19a8c77d9" y="307.584"/>
      </g>
     </g>
     <g id="text_6">
      <!-- 0.25 -->
      <g transform="translate(367.015214 325.221812)scale(0.14 -0.14)">
       <use xlink:href="#DejaVuSans-30"/>
       <use x="63.623047" xlink:href="#DejaVuSans-2e"/>
       <use x="95.410156" xlink:href="#DejaVuSans-32"/>
       <use x="159.033203" xlink:href="#DejaVuSans-35"/>
      </g>
     </g>
    </g>
    <g id="text_7">
     <!-- recall -->
     <defs>
      <path d="M 41.109375 46.296875 
Q 39.59375 47.171875 37.8125 47.578125 
Q 36.03125 48 33.890625 48 
Q 26.265625 48 22.1875 43.046875 
Q 18.109375 38.09375 18.109375 28.8125 
L 18.109375 0 
L 9.078125 0 
L 9.078125 54.6875 
L 18.109375 54.6875 
L 18.109375 46.1875 
Q 20.953125 51.171875 25.484375 53.578125 
Q 30.03125 56 36.53125 56 
Q 37.453125 56 38.578125 55.875 
Q 39.703125 55.765625 41.0625 55.515625 
z
" id="DejaVuSans-72"/>
      <path d="M 56.203125 29.59375 
L 56.203125 25.203125 
L 14.890625 25.203125 
Q 15.484375 15.921875 20.484375 11.0625 
Q 25.484375 6.203125 34.421875 6.203125 
Q 39.59375 6.203125 44.453125 7.46875 
Q 49.3125 8.734375 54.109375 11.28125 
L 54.109375 2.78125 
Q 49.265625 0.734375 44.1875 -0.34375 
Q 39.109375 -1.421875 33.890625 -1.421875 
Q 20.796875 -1.421875 13.15625 6.1875 
Q 5.515625 13.8125 5.515625 26.8125 
Q 5.515625 40.234375 12.765625 48.109375 
Q 20.015625 56 32.328125 56 
Q 43.359375 56 49.78125 48.890625 
Q 56.203125 41.796875 56.203125 29.59375 
z
M 47.21875 32.234375 
Q 47.125 39.59375 43.09375 43.984375 
Q 39.0625 48.390625 32.421875 48.390625 
Q 24.90625 48.390625 20.390625 44.140625 
Q 15.875 39.890625 15.1875 32.171875 
z
" id="DejaVuSans-65"/>
      <path d="M 48.78125 52.59375 
L 48.78125 44.1875 
Q 44.96875 46.296875 41.140625 47.34375 
Q 37.3125 48.390625 33.40625 48.390625 
Q 24.65625 48.390625 19.8125 42.84375 
Q 14.984375 37.3125 14.984375 27.296875 
Q 14.984375 17.28125 19.8125 11.734375 
Q 24.65625 6.203125 33.40625 6.203125 
Q 37.3125 6.203125 41.140625 7.25 
Q 44.96875 8.296875 48.78125 10.40625 
L 48.78125 2.09375 
Q 45.015625 0.34375 40.984375 -0.53125 
Q 36.96875 -1.421875 32.421875 -1.421875 
Q 20.0625 -1.421875 12.78125 6.34375 
Q 5.515625 14.109375 5.515625 27.296875 
Q 5.515625 40.671875 12.859375 48.328125 
Q 20.21875 56 33.015625 56 
Q 37.15625 56 41.109375 55.140625 
Q 45.0625 54.296875 48.78125 52.59375 
z
" id="DejaVuSans-63"/>
      <path d="M 34.28125 27.484375 
Q 23.390625 27.484375 19.1875 25 
Q 14.984375 22.515625 14.984375 16.5 
Q 14.984375 11.71875 18.140625 8.90625 
Q 21.296875 6.109375 26.703125 6.109375 
Q 34.1875 6.109375 38.703125 11.40625 
Q 43.21875 16.703125 43.21875 25.484375 
L 43.21875 27.484375 
z
M 52.203125 31.203125 
L 52.203125 0 
L 43.21875 0 
L 43.21875 8.296875 
Q 40.140625 3.328125 35.546875 0.953125 
Q 30.953125 -1.421875 24.3125 -1.421875 
Q 15.921875 -1.421875 10.953125 3.296875 
Q 6 8.015625 6 15.921875 
Q 6 25.140625 12.171875 29.828125 
Q 18.359375 34.515625 30.609375 34.515625 
L 43.21875 34.515625 
L 43.21875 35.40625 
Q 43.21875 41.609375 39.140625 45 
Q 35.0625 48.390625 27.6875 48.390625 
Q 23 48.390625 18.546875 47.265625 
Q 14.109375 46.140625 10.015625 43.890625 
L 10.015625 52.203125 
Q 14.9375 54.109375 19.578125 55.046875 
Q 24.21875 56 28.609375 56 
Q 40.484375 56 46.34375 49.84375 
Q 52.203125 43.703125 52.203125 31.203125 
z
" id="DejaVuSans-61"/>
      <path d="M 9.421875 75.984375 
L 18.40625 75.984375 
L 18.40625 0 
L 9.421875 0 
z
" id="DejaVuSans-6c"/>
     </defs>
     <g transform="translate(216.949375 342.771187)scale(0.14 -0.14)">
      <use xlink:href="#DejaVuSans-72"/>
      <use x="41.082031" xlink:href="#DejaVuSans-65"/>
      <use x="102.605469" xlink:href="#DejaVuSans-63"/>
      <use x="157.585938" xlink:href="#DejaVuSans-61"/>
      <use x="218.865234" xlink:href="#DejaVuSans-6c"/>
      <use x="246.648438" xlink:href="#DejaVuSans-6c"/>
     </g>
    </g>
   </g>
   <g id="matplotlib.axis_2">
    <g id="ytick_1">
     <g id="line2d_13">
      <path clip-path="url(#p85a26a053a)" d="M 57.6 306.056084 
L 414.72 306.056084 
" style="fill:none;stroke:#b0b0b0;stroke-linecap:square;stroke-width:0.8;"/>
     </g>
     <g id="line2d_14">
      <defs>
       <path d="M 0 0 
L -3.5 0 
" id="me3c7355ba2" style="stroke:#000000;stroke-width:0.8;"/>
      </defs>
      <g>
       <use style="stroke:#000000;stroke-width:0.8;" x="57.6" xlink:href="#me3c7355ba2" y="306.056084"/>
      </g>
     </g>
     <g id="text_8">
      <!-- 0.4 -->
      <defs>
       <path d="M 37.796875 64.3125 
L 12.890625 25.390625 
L 37.796875 25.390625 
z
M 35.203125 72.90625 
L 47.609375 72.90625 
L 47.609375 25.390625 
L 58.015625 25.390625 
L 58.015625 17.1875 
L 47.609375 17.1875 
L 47.609375 0 
L 37.796875 0 
L 37.796875 17.1875 
L 4.890625 17.1875 
L 4.890625 26.703125 
z
" id="DejaVuSans-34"/>
      </defs>
      <g transform="translate(28.335625 311.37499)scale(0.14 -0.14)">
       <use xlink:href="#DejaVuSans-30"/>
       <use x="63.623047" xlink:href="#DejaVuSans-2e"/>
       <use x="95.410156" xlink:href="#DejaVuSans-34"/>
      </g>
     </g>
    </g>
    <g id="ytick_2">
     <g id="line2d_15">
      <path clip-path="url(#p85a26a053a)" d="M 57.6 263.974737 
L 414.72 263.974737 
" style="fill:none;stroke:#b0b0b0;stroke-linecap:square;stroke-width:0.8;"/>
     </g>
     <g id="line2d_16">
      <g>
       <use style="stroke:#000000;stroke-width:0.8;" x="57.6" xlink:href="#me3c7355ba2" y="263.974737"/>
      </g>
     </g>
     <g id="text_9">
      <!-- 0.5 -->
      <g transform="translate(28.335625 269.293643)scale(0.14 -0.14)">
       <use xlink:href="#DejaVuSans-30"/>
       <use x="63.623047" xlink:href="#DejaVuSans-2e"/>
       <use x="95.410156" xlink:href="#DejaVuSans-35"/>
      </g>
     </g>
    </g>
    <g id="ytick_3">
     <g id="line2d_17">
      <path clip-path="url(#p85a26a053a)" d="M 57.6 221.893389 
L 414.72 221.893389 
" style="fill:none;stroke:#b0b0b0;stroke-linecap:square;stroke-width:0.8;"/>
     </g>
     <g id="line2d_18">
      <g>
       <use style="stroke:#000000;stroke-width:0.8;" x="57.6" xlink:href="#me3c7355ba2" y="221.893389"/>
      </g>
     </g>
     <g id="text_10">
      <!-- 0.6 -->
      <defs>
       <path d="M 33.015625 40.375 
Q 26.375 40.375 22.484375 35.828125 
Q 18.609375 31.296875 18.609375 23.390625 
Q 18.609375 15.53125 22.484375 10.953125 
Q 26.375 6.390625 33.015625 6.390625 
Q 39.65625 6.390625 43.53125 10.953125 
Q 47.40625 15.53125 47.40625 23.390625 
Q 47.40625 31.296875 43.53125 35.828125 
Q 39.65625 40.375 33.015625 40.375 
z
M 52.59375 71.296875 
L 52.59375 62.3125 
Q 48.875 64.0625 45.09375 64.984375 
Q 41.3125 65.921875 37.59375 65.921875 
Q 27.828125 65.921875 22.671875 59.328125 
Q 17.53125 52.734375 16.796875 39.40625 
Q 19.671875 43.65625 24.015625 45.921875 
Q 28.375 48.1875 33.59375 48.1875 
Q 44.578125 48.1875 50.953125 41.515625 
Q 57.328125 34.859375 57.328125 23.390625 
Q 57.328125 12.15625 50.6875 5.359375 
Q 44.046875 -1.421875 33.015625 -1.421875 
Q 20.359375 -1.421875 13.671875 8.265625 
Q 6.984375 17.96875 6.984375 36.375 
Q 6.984375 53.65625 15.1875 63.9375 
Q 23.390625 74.21875 37.203125 74.21875 
Q 40.921875 74.21875 44.703125 73.484375 
Q 48.484375 72.75 52.59375 71.296875 
z
" id="DejaVuSans-36"/>
      </defs>
      <g transform="translate(28.335625 227.212296)scale(0.14 -0.14)">
       <use xlink:href="#DejaVuSans-30"/>
       <use x="63.623047" xlink:href="#DejaVuSans-2e"/>
       <use x="95.410156" xlink:href="#DejaVuSans-36"/>
      </g>
     </g>
    </g>
    <g id="ytick_4">
     <g id="line2d_19">
      <path clip-path="url(#p85a26a053a)" d="M 57.6 179.812042 
L 414.72 179.812042 
" style="fill:none;stroke:#b0b0b0;stroke-linecap:square;stroke-width:0.8;"/>
     </g>
     <g id="line2d_20">
      <g>
       <use style="stroke:#000000;stroke-width:0.8;" x="57.6" xlink:href="#me3c7355ba2" y="179.812042"/>
      </g>
     </g>
     <g id="text_11">
      <!-- 0.7 -->
      <defs>
       <path d="M 8.203125 72.90625 
L 55.078125 72.90625 
L 55.078125 68.703125 
L 28.609375 0 
L 18.3125 0 
L 43.21875 64.59375 
L 8.203125 64.59375 
z
" id="DejaVuSans-37"/>
      </defs>
      <g transform="translate(28.335625 185.130948)scale(0.14 -0.14)">
       <use xlink:href="#DejaVuSans-30"/>
       <use x="63.623047" xlink:href="#DejaVuSans-2e"/>
       <use x="95.410156" xlink:href="#DejaVuSans-37"/>
      </g>
     </g>
    </g>
    <g id="ytick_5">
     <g id="line2d_21">
      <path clip-path="url(#p85a26a053a)" d="M 57.6 137.730695 
L 414.72 137.730695 
" style="fill:none;stroke:#b0b0b0;stroke-linecap:square;stroke-width:0.8;"/>
     </g>
     <g id="line2d_22">
      <g>
       <use style="stroke:#000000;stroke-width:0.8;" x="57.6" xlink:href="#me3c7355ba2" y="137.730695"/>
      </g>
     </g>
     <g id="text_12">
      <!-- 0.8 -->
      <defs>
       <path d="M 31.78125 34.625 
Q 24.75 34.625 20.71875 30.859375 
Q 16.703125 27.09375 16.703125 20.515625 
Q 16.703125 13.921875 20.71875 10.15625 
Q 24.75 6.390625 31.78125 6.390625 
Q 38.8125 6.390625 42.859375 10.171875 
Q 46.921875 13.96875 46.921875 20.515625 
Q 46.921875 27.09375 42.890625 30.859375 
Q 38.875 34.625 31.78125 34.625 
z
M 21.921875 38.8125 
Q 15.578125 40.375 12.03125 44.71875 
Q 8.5 49.078125 8.5 55.328125 
Q 8.5 64.0625 14.71875 69.140625 
Q 20.953125 74.21875 31.78125 74.21875 
Q 42.671875 74.21875 48.875 69.140625 
Q 55.078125 64.0625 55.078125 55.328125 
Q 55.078125 49.078125 51.53125 44.71875 
Q 48 40.375 41.703125 38.8125 
Q 48.828125 37.15625 52.796875 32.3125 
Q 56.78125 27.484375 56.78125 20.515625 
Q 56.78125 9.90625 50.3125 4.234375 
Q 43.84375 -1.421875 31.78125 -1.421875 
Q 19.734375 -1.421875 13.25 4.234375 
Q 6.78125 9.90625 6.78125 20.515625 
Q 6.78125 27.484375 10.78125 32.3125 
Q 14.796875 37.15625 21.921875 38.8125 
z
M 18.3125 54.390625 
Q 18.3125 48.734375 21.84375 45.5625 
Q 25.390625 42.390625 31.78125 42.390625 
Q 38.140625 42.390625 41.71875 45.5625 
Q 45.3125 48.734375 45.3125 54.390625 
Q 45.3125 60.0625 41.71875 63.234375 
Q 38.140625 66.40625 31.78125 66.40625 
Q 25.390625 66.40625 21.84375 63.234375 
Q 18.3125 60.0625 18.3125 54.390625 
z
" id="DejaVuSans-38"/>
      </defs>
      <g transform="translate(28.335625 143.049601)scale(0.14 -0.14)">
       <use xlink:href="#DejaVuSans-30"/>
       <use x="63.623047" xlink:href="#DejaVuSans-2e"/>
       <use x="95.410156" xlink:href="#DejaVuSans-38"/>
      </g>
     </g>
    </g>
    <g id="ytick_6">
     <g id="line2d_23">
      <path clip-path="url(#p85a26a053a)" d="M 57.6 95.649347 
L 414.72 95.649347 
" style="fill:none;stroke:#b0b0b0;stroke-linecap:square;stroke-width:0.8;"/>
     </g>
     <g id="line2d_24">
      <g>
       <use style="stroke:#000000;stroke-width:0.8;" x="57.6" xlink:href="#me3c7355ba2" y="95.649347"/>
      </g>
     </g>
     <g id="text_13">
      <!-- 0.9 -->
      <defs>
       <path d="M 10.984375 1.515625 
L 10.984375 10.5 
Q 14.703125 8.734375 18.5 7.8125 
Q 22.3125 6.890625 25.984375 6.890625 
Q 35.75 6.890625 40.890625 13.453125 
Q 46.046875 20.015625 46.78125 33.40625 
Q 43.953125 29.203125 39.59375 26.953125 
Q 35.25 24.703125 29.984375 24.703125 
Q 19.046875 24.703125 12.671875 31.3125 
Q 6.296875 37.9375 6.296875 49.421875 
Q 6.296875 60.640625 12.9375 67.421875 
Q 19.578125 74.21875 30.609375 74.21875 
Q 43.265625 74.21875 49.921875 64.515625 
Q 56.59375 54.828125 56.59375 36.375 
Q 56.59375 19.140625 48.40625 8.859375 
Q 40.234375 -1.421875 26.421875 -1.421875 
Q 22.703125 -1.421875 18.890625 -0.6875 
Q 15.09375 0.046875 10.984375 1.515625 
z
M 30.609375 32.421875 
Q 37.25 32.421875 41.125 36.953125 
Q 45.015625 41.5 45.015625 49.421875 
Q 45.015625 57.28125 41.125 61.84375 
Q 37.25 66.40625 30.609375 66.40625 
Q 23.96875 66.40625 20.09375 61.84375 
Q 16.21875 57.28125 16.21875 49.421875 
Q 16.21875 41.5 20.09375 36.953125 
Q 23.96875 32.421875 30.609375 32.421875 
z
" id="DejaVuSans-39"/>
      </defs>
      <g transform="translate(28.335625 100.968254)scale(0.14 -0.14)">
       <use xlink:href="#DejaVuSans-30"/>
       <use x="63.623047" xlink:href="#DejaVuSans-2e"/>
       <use x="95.410156" xlink:href="#DejaVuSans-39"/>
      </g>
     </g>
    </g>
    <g id="ytick_7">
     <g id="line2d_25">
      <path clip-path="url(#p85a26a053a)" d="M 57.6 53.568 
L 414.72 53.568 
" style="fill:none;stroke:#b0b0b0;stroke-linecap:square;stroke-width:0.8;"/>
     </g>
     <g id="line2d_26">
      <g>
       <use style="stroke:#000000;stroke-width:0.8;" x="57.6" xlink:href="#me3c7355ba2" y="53.568"/>
      </g>
     </g>
     <g id="text_14">
      <!-- 1.0 -->
      <g transform="translate(28.335625 58.886906)scale(0.14 -0.14)">
       <use xlink:href="#DejaVuSans-31"/>
       <use x="63.623047" xlink:href="#DejaVuSans-2e"/>
       <use x="95.410156" xlink:href="#DejaVuSans-30"/>
      </g>
     </g>
    </g>
    <g id="text_15">
     <!-- precision -->
     <defs>
      <path d="M 18.109375 8.203125 
L 18.109375 -20.796875 
L 9.078125 -20.796875 
L 9.078125 54.6875 
L 18.109375 54.6875 
L 18.109375 46.390625 
Q 20.953125 51.265625 25.265625 53.625 
Q 29.59375 56 35.59375 56 
Q 45.5625 56 51.78125 48.09375 
Q 58.015625 40.1875 58.015625 27.296875 
Q 58.015625 14.40625 51.78125 6.484375 
Q 45.5625 -1.421875 35.59375 -1.421875 
Q 29.59375 -1.421875 25.265625 0.953125 
Q 20.953125 3.328125 18.109375 8.203125 
z
M 48.6875 27.296875 
Q 48.6875 37.203125 44.609375 42.84375 
Q 40.53125 48.484375 33.40625 48.484375 
Q 26.265625 48.484375 22.1875 42.84375 
Q 18.109375 37.203125 18.109375 27.296875 
Q 18.109375 17.390625 22.1875 11.75 
Q 26.265625 6.109375 33.40625 6.109375 
Q 40.53125 6.109375 44.609375 11.75 
Q 48.6875 17.390625 48.6875 27.296875 
z
" id="DejaVuSans-70"/>
      <path d="M 9.421875 54.6875 
L 18.40625 54.6875 
L 18.40625 0 
L 9.421875 0 
z
M 9.421875 75.984375 
L 18.40625 75.984375 
L 18.40625 64.59375 
L 9.421875 64.59375 
z
" id="DejaVuSans-69"/>
      <path d="M 44.28125 53.078125 
L 44.28125 44.578125 
Q 40.484375 46.53125 36.375 47.5 
Q 32.28125 48.484375 27.875 48.484375 
Q 21.1875 48.484375 17.84375 46.4375 
Q 14.5 44.390625 14.5 40.28125 
Q 14.5 37.15625 16.890625 35.375 
Q 19.28125 33.59375 26.515625 31.984375 
L 29.59375 31.296875 
Q 39.15625 29.25 43.1875 25.515625 
Q 47.21875 21.78125 47.21875 15.09375 
Q 47.21875 7.46875 41.1875 3.015625 
Q 35.15625 -1.421875 24.609375 -1.421875 
Q 20.21875 -1.421875 15.453125 -0.5625 
Q 10.6875 0.296875 5.421875 2 
L 5.421875 11.28125 
Q 10.40625 8.6875 15.234375 7.390625 
Q 20.0625 6.109375 24.8125 6.109375 
Q 31.15625 6.109375 34.5625 8.28125 
Q 37.984375 10.453125 37.984375 14.40625 
Q 37.984375 18.0625 35.515625 20.015625 
Q 33.0625 21.96875 24.703125 23.78125 
L 21.578125 24.515625 
Q 13.234375 26.265625 9.515625 29.90625 
Q 5.8125 33.546875 5.8125 39.890625 
Q 5.8125 47.609375 11.28125 51.796875 
Q 16.75 56 26.8125 56 
Q 31.78125 56 36.171875 55.265625 
Q 40.578125 54.546875 44.28125 53.078125 
z
" id="DejaVuSans-73"/>
      <path d="M 30.609375 48.390625 
Q 23.390625 48.390625 19.1875 42.75 
Q 14.984375 37.109375 14.984375 27.296875 
Q 14.984375 17.484375 19.15625 11.84375 
Q 23.34375 6.203125 30.609375 6.203125 
Q 37.796875 6.203125 41.984375 11.859375 
Q 46.1875 17.53125 46.1875 27.296875 
Q 46.1875 37.015625 41.984375 42.703125 
Q 37.796875 48.390625 30.609375 48.390625 
z
M 30.609375 56 
Q 42.328125 56 49.015625 48.375 
Q 55.71875 40.765625 55.71875 27.296875 
Q 55.71875 13.875 49.015625 6.21875 
Q 42.328125 -1.421875 30.609375 -1.421875 
Q 18.84375 -1.421875 12.171875 6.21875 
Q 5.515625 13.875 5.515625 27.296875 
Q 5.515625 40.765625 12.171875 48.375 
Q 18.84375 56 30.609375 56 
z
" id="DejaVuSans-6f"/>
      <path d="M 54.890625 33.015625 
L 54.890625 0 
L 45.90625 0 
L 45.90625 32.71875 
Q 45.90625 40.484375 42.875 44.328125 
Q 39.84375 48.1875 33.796875 48.1875 
Q 26.515625 48.1875 22.3125 43.546875 
Q 18.109375 38.921875 18.109375 30.90625 
L 18.109375 0 
L 9.078125 0 
L 9.078125 54.6875 
L 18.109375 54.6875 
L 18.109375 46.1875 
Q 21.34375 51.125 25.703125 53.5625 
Q 30.078125 56 35.796875 56 
Q 45.21875 56 50.046875 50.171875 
Q 54.890625 44.34375 54.890625 33.015625 
z
" id="DejaVuSans-6e"/>
     </defs>
     <g transform="translate(21.424062 206.258781)rotate(-90)scale(0.14 -0.14)">
      <use xlink:href="#DejaVuSans-70"/>
      <use x="63.476562" xlink:href="#DejaVuSans-72"/>
      <use x="104.558594" xlink:href="#DejaVuSans-65"/>
      <use x="166.082031" xlink:href="#DejaVuSans-63"/>
      <use x="221.0625" xlink:href="#DejaVuSans-69"/>
      <use x="248.845703" xlink:href="#DejaVuSans-73"/>
      <use x="300.945312" xlink:href="#DejaVuSans-69"/>
      <use x="328.728516" xlink:href="#DejaVuSans-6f"/>
      <use x="389.910156" xlink:href="#DejaVuSans-6e"/>
     </g>
    </g>
   </g>
   <g id="line2d_27">
    <path clip-path="url(#p85a26a053a)" d="M 73.832727 53.568 
L 77.29879 53.568 
L 77.29879 65.257263 
L 114.270126 65.257263 
L 114.270126 75.716078 
L 115.42548 75.716078 
L 115.42548 90.160476 
L 122.357606 90.160476 
L 122.357606 91.82377 
L 131.60044 91.82377 
L 131.60044 93.645474 
L 139.68792 93.645474 
L 139.68792 95.056652 
L 147.7754 95.056652 
L 147.7754 99.061349 
L 150.086108 99.061349 
L 150.086108 116.690021 
L 152.396817 116.690021 
L 152.396817 117.179339 
L 158.173588 117.179339 
L 158.173588 132.181506 
L 159.328942 132.181506 
L 159.328942 138.626043 
L 160.484296 138.626043 
L 160.484296 141.237474 
L 161.639651 141.237474 
L 161.639651 143.742316 
L 162.795005 143.742316 
L 162.795005 143.99073 
L 183.591381 143.99073 
L 183.591381 146.345774 
L 183.591381 146.345774 
L 188.212798 146.345774 
L 188.212798 151.652343 
L 191.678861 151.652343 
L 191.678861 155.677152 
L 192.834215 155.677152 
L 192.834215 156.564305 
L 192.834215 156.564305 
L 198.610987 156.564305 
L 198.610987 161.614703 
L 200.921695 161.614703 
L 200.921695 165.041768 
L 202.077049 165.041768 
L 202.077049 166.335009 
L 203.232404 166.335009 
L 203.232404 170.756562 
L 205.543112 170.756562 
L 205.543112 171.921789 
L 206.698467 171.921789 
L 206.698467 175.249004 
L 206.698467 175.249004 
L 210.164529 175.249004 
L 210.164529 178.069028 
L 211.319884 178.069028 
L 211.319884 180.790678 
L 212.475238 180.790678 
L 212.475238 181.014366 
L 214.785946 181.014366 
L 214.785946 181.951772 
L 215.941301 181.951772 
L 215.941301 182.868229 
L 217.096655 182.868229 
L 217.096655 188.502755 
L 220.562718 188.588366 
L 220.562718 188.751603 
L 220.562718 188.751603 
L 225.184135 188.751603 
L 225.184135 190.976481 
L 228.650197 191.019637 
L 228.650197 194.530149 
L 229.805552 194.530149 
L 229.805552 197.211061 
L 229.805552 197.211061 
L 232.11626 197.211061 
L 232.11626 197.846905 
L 233.271614 197.846905 
L 233.271614 199.683789 
L 236.737677 199.683789 
L 236.737677 203.994536 
L 237.893031 203.994536 
L 237.893031 205.737158 
L 239.048386 205.737158 
L 239.048386 206.089914 
L 239.048386 206.089914 
L 242.514448 206.089914 
L 242.514448 207.74535 
L 243.669803 207.74535 
L 243.669803 207.866274 
L 243.669803 207.866274 
L 249.446574 207.866274 
L 249.446574 208.32998 
L 250.601928 208.32998 
L 250.601928 209.870147 
L 251.757282 209.870147 
L 251.757282 211.373053 
L 252.912637 211.373053 
L 252.912637 211.955359 
L 252.912637 211.955359 
L 269.087596 211.955359 
L 269.087596 217.049493 
L 270.242951 217.049493 
L 270.242951 218.299253 
L 271.398305 218.299253 
L 271.398305 220.72039 
L 271.398305 220.72039 
L 273.709013 220.72039 
L 273.709013 221.610964 
L 273.709013 221.610964 
L 280.641139 221.610964 
L 280.641139 222.73222 
L 281.796493 222.73222 
L 281.796493 223.831346 
L 282.951847 223.831346 
L 282.951847 224.352689 
L 282.951847 224.352689 
L 285.262556 224.352689 
L 285.262556 225.411444 
L 286.41791 225.411444 
L 286.41791 225.901137 
L 286.41791 225.901137 
L 288.728619 225.901137 
L 288.728619 226.141349 
L 289.883973 226.141349 
L 289.883973 228.906947 
L 289.883973 228.906947 
L 292.194681 228.906947 
L 292.194681 230.159368 
L 292.194681 230.159368 
L 299.126807 230.159368 
L 299.126807 230.359459 
L 300.282161 230.359459 
L 300.282161 230.557196 
L 301.437515 230.557196 
L 301.437515 233.569139 
L 302.59287 233.569139 
L 302.59287 235.800615 
L 303.748224 235.800615 
L 303.748224 239.944998 
L 304.903578 239.944998 
L 304.903578 240.078127 
L 306.058932 240.078127 
L 306.058932 241.492921 
L 307.214287 241.492921 
L 307.214287 241.709474 
L 307.214287 241.709474 
L 315.301766 241.709474 
L 315.301766 243.044224 
L 317.612475 243.153237 
L 317.612475 243.85833 
L 318.767829 243.85833 
L 318.767829 244.552577 
L 319.923183 244.552577 
L 319.923183 245.909512 
L 319.923183 245.909512 
L 322.233892 245.909512 
L 322.233892 249.947621 
L 324.5446 250.01655 
L 324.5446 250.084806 
L 336.098143 250.145186 
L 336.098143 251.369725 
L 336.098143 251.369725 
L 339.564206 251.369725 
L 339.564206 253.955368 
L 340.71956 253.955368 
L 340.71956 255.031274 
L 340.71956 255.031274 
L 343.030269 255.031274 
L 343.030269 255.558467 
L 345.340977 255.595707 
L 345.340977 256.14779 
L 345.340977 256.14779 
L 348.80704 256.181895 
L 348.80704 256.687923 
L 351.117748 256.719332 
L 351.117748 257.21649 
L 352.273103 257.21649 
L 352.273103 259.16294 
L 352.273103 259.16294 
L 358.049874 259.16294 
L 358.049874 262.694371 
L 358.049874 262.694371 
L 360.360582 262.694371 
L 360.360582 263.126323 
L 361.515937 263.126323 
L 361.515937 264.813011 
L 361.515937 264.813011 
L 362.671291 264.813011 
L 362.671291 265.612143 
L 362.671291 265.612143 
L 368.448062 265.612143 
L 368.448062 268.793212 
L 368.448062 268.793212 
L 369.603416 268.793212 
L 369.603416 272.233693 
L 369.603416 272.233693 
L 370.758771 272.233693 
L 370.758771 272.91994 
L 370.758771 272.91994 
L 373.069479 272.91994 
L 373.069479 273.223385 
L 373.069479 273.223385 
L 375.380188 273.223385 
L 375.380188 274.609012 
L 375.380188 274.609012 
L 377.690896 274.609012 
L 377.690896 280.836601 
L 377.690896 280.836601 
L 378.84625 280.836601 
L 378.84625 282.773964 
L 378.84625 282.773964 
L 380.001605 282.773964 
L 380.001605 284.519502 
L 380.001605 284.519502 
L 383.467667 284.519502 
L 383.467667 286.343559 
L 383.467667 286.343559 
L 384.623022 286.343559 
L 384.623022 287.658366 
L 384.623022 287.658366 
L 388.089084 287.658366 
L 388.089084 289.519325 
L 388.089084 289.519325 
L 391.555147 289.519325 
L 391.555147 290.31726 
L 391.555147 290.31726 
L 392.710501 290.31726 
L 392.710501 290.814021 
L 392.710501 290.814021 
L 393.865856 290.814021 
L 393.865856 291.017609 
L 393.865856 291.017609 
L 395.02121 291.017609 
L 395.02121 291.219291 
L 395.02121 291.219291 
L 396.176564 291.219291 
L 396.176564 294.765967 
L 396.176564 294.765967 
L 397.331918 294.765967 
L 397.331918 294.945076 
L 397.331918 294.945076 
L 398.487273 294.945076 
L 398.487273 295.488 
L 398.487273 295.488 
" style="fill:none;stroke:#ff0000;stroke-dasharray:5.55,2.4;stroke-dashoffset:0;stroke-width:1.5;"/>
   </g>
   <g id="line2d_28">
    <path clip-path="url(#p85a26a053a)" d="M 74.988082 53.568 
L 77.29879 53.568 
L 77.29879 158.771368 
L 78.454144 137.730695 
L 79.609499 123.703579 
L 80.764853 113.684211 
L 81.920207 106.169684 
L 83.075561 100.325053 
L 84.230916 95.649347 
L 85.38627 91.82377 
L 86.541624 88.635789 
L 87.696978 85.938267 
L 88.852333 83.626105 
L 90.007687 81.622232 
L 91.163041 79.868842 
L 93.47375 76.946526 
L 95.784458 74.608674 
L 98.095167 72.695885 
L 100.405875 71.101895 
L 102.716584 69.753134 
L 106.182646 68.078809 
L 109.648709 66.718421 
L 113.114772 65.591242 
L 114.270126 65.257263 
L 114.270126 76.314674 
L 115.42548 75.716078 
L 115.42548 95.649347 
L 118.891543 92.713439 
L 122.357606 90.160476 
L 122.357606 98.335391 
L 125.823669 95.649347 
L 129.289731 93.267384 
L 131.60044 91.82377 
L 131.60044 98.655158 
L 135.066503 96.362591 
L 138.532566 94.291885 
L 139.68792 93.645474 
L 139.68792 99.594474 
L 144.309337 96.887034 
L 147.7754 95.056652 
L 147.7754 100.325053 
L 150.086108 99.061349 
L 150.086108 118.308534 
L 152.396817 116.690021 
L 152.396817 121.105965 
L 157.018234 117.927708 
L 158.173588 117.179339 
L 158.173588 133.054989 
L 159.328942 132.181506 
L 159.328942 139.540645 
L 160.484296 138.626043 
L 160.484296 142.16031 
L 161.639651 141.237474 
L 161.639651 144.671948 
L 162.795005 143.742316 
L 162.795005 147.082105 
L 166.261068 144.33169 
L 166.261068 150.678802 
L 170.882485 147.082105 
L 173.193193 145.381849 
L 173.193193 148.345809 
L 176.659256 145.851657 
L 176.659256 148.708438 
L 181.280673 145.51044 
L 183.591381 143.99073 
L 183.591381 149.362937 
L 188.212798 146.345774 
L 188.212798 153.915828 
L 191.678861 151.652343 
L 191.678861 156.433516 
L 192.834215 155.677152 
L 192.834215 160.296055 
L 198.610987 156.564305 
L 198.610987 163.094795 
L 200.921695 161.614703 
L 200.921695 165.784926 
L 202.077049 165.041768 
L 202.077049 167.076898 
L 203.232404 166.335009 
L 203.232404 172.25898 
L 205.543112 170.756562 
L 205.543112 172.666153 
L 206.698467 171.921789 
L 206.698467 177.488532 
L 210.164529 175.249004 
L 210.164529 178.810105 
L 211.319884 178.069028 
L 211.319884 181.53467 
L 212.475238 180.790678 
L 212.475238 182.487735 
L 214.785946 181.014366 
L 214.785946 182.681225 
L 215.941301 181.951772 
L 215.941301 183.594635 
L 217.096655 182.868229 
L 217.096655 189.240104 
L 218.252009 188.502755 
L 218.252009 190.048046 
L 220.562718 188.588366 
L 220.562718 191.612632 
L 225.184135 188.751603 
L 225.184135 191.68114 
L 226.339489 190.976481 
L 226.339489 192.415085 
L 228.650197 191.019637 
L 228.650197 195.227981 
L 229.805552 194.530149 
L 229.805552 198.605654 
L 232.11626 197.211061 
L 232.11626 198.537235 
L 233.271614 197.846905 
L 233.271614 200.455722 
L 234.426969 199.766108 
L 234.426969 201.049358 
L 236.737677 199.683789 
L 236.737677 204.678293 
L 237.893031 203.994536 
L 237.893031 206.419531 
L 239.048386 205.737158 
L 239.048386 208.114541 
L 242.514448 206.089914 
L 242.514448 208.412785 
L 243.669803 207.74535 
L 243.669803 210.024291 
L 245.980511 208.698391 
L 245.980511 209.819416 
L 249.446574 207.866274 
L 249.446574 208.972146 
L 250.601928 208.32998 
L 250.601928 210.51073 
L 251.757282 209.870147 
L 251.757282 212.011939 
L 252.912637 211.373053 
L 252.912637 214.51658 
L 254.067991 213.877895 
L 254.067991 214.907553 
L 255.223345 214.272358 
L 255.223345 215.292394 
L 259.844762 212.79472 
L 259.844762 213.800823 
L 261.000116 213.186904 
L 261.000116 214.18383 
L 262.155471 213.573123 
L 262.155471 214.561033 
L 266.776888 212.158152 
L 266.776888 213.13296 
L 269.087596 211.955359 
L 269.087596 217.639679 
L 270.242951 217.049493 
L 270.242951 218.887579 
L 271.398305 218.299253 
L 271.398305 221.893389 
L 273.709013 220.72039 
L 273.709013 225.063902 
L 280.641139 221.610964 
L 280.641139 223.296101 
L 281.796493 222.73222 
L 281.796493 224.393271 
L 282.951847 223.831346 
L 282.951847 225.468929 
L 285.262556 224.352689 
L 285.262556 225.965778 
L 286.41791 225.411444 
L 286.41791 227.002307 
L 288.728619 225.901137 
L 288.728619 226.687467 
L 289.883973 226.141349 
L 289.883973 229.996009 
L 292.194681 228.906947 
L 292.194681 231.159007 
L 293.350036 230.617571 
L 293.350036 231.358495 
L 294.50539 230.819736 
L 294.50539 231.555572 
L 296.816098 230.486578 
L 296.816098 231.216802 
L 299.126807 230.159368 
L 299.126807 230.884063 
L 300.282161 230.359459 
L 300.282161 231.079288 
L 301.437515 230.557196 
L 301.437515 234.090881 
L 302.59287 233.569139 
L 302.59287 236.32128 
L 303.748224 235.800615 
L 303.748224 240.465604 
L 304.903578 239.944998 
L 304.903578 240.596211 
L 306.058932 240.078127 
L 306.058932 242.009198 
L 307.214287 241.492921 
L 307.214287 243.391469 
L 308.369641 242.877042 
L 308.369641 244.125045 
L 311.835704 242.596512 
L 311.835704 243.214605 
L 315.301766 241.709474 
L 315.301766 243.541537 
L 316.457121 243.044224 
L 316.457121 243.648237 
L 317.612475 243.153237 
L 317.612475 244.351311 
L 318.767829 243.85833 
L 318.767829 245.043539 
L 319.923183 244.552577 
L 319.923183 246.885865 
L 322.233892 245.909512 
L 322.233892 250.433709 
L 323.389246 249.947621 
L 323.389246 250.500414 
L 324.5446 250.01655 
L 324.5446 250.566464 
L 325.699955 250.084806 
L 325.699955 252.25717 
L 328.010663 251.299632 
L 328.010663 252.900698 
L 329.166017 252.424964 
L 329.166017 252.953432 
L 336.098143 250.145186 
L 336.098143 252.231105 
L 337.253497 251.77017 
L 337.253497 252.285474 
L 339.564206 251.369725 
L 339.564206 254.410794 
L 340.71956 253.955368 
L 340.71956 255.936727 
L 343.030269 255.031274 
L 343.030269 256.008335 
L 344.185623 255.558467 
L 344.185623 256.043663 
L 345.340977 255.595707 
L 345.340977 257.038251 
L 347.651686 256.14779 
L 347.651686 256.624283 
L 348.80704 256.181895 
L 348.80704 257.128531 
L 349.962394 256.687923 
L 349.962394 257.158104 
L 351.117748 256.719332 
L 351.117748 257.653504 
L 352.273103 257.21649 
L 352.273103 261.322551 
L 358.049874 259.16294 
L 358.049874 263.54621 
L 360.360582 262.694371 
L 360.360582 263.549673 
L 361.515937 263.126323 
L 361.515937 265.234657 
L 362.671291 264.813011 
L 362.671291 266.469678 
L 363.826645 266.049754 
L 363.826645 267.275235 
L 368.448062 265.612143 
L 368.448062 269.204732 
L 369.603416 268.793212 
L 369.603416 272.643179 
L 370.758771 272.233693 
L 370.758771 273.360911 
L 371.914125 272.953132 
L 371.914125 273.326147 
L 373.069479 272.91994 
L 373.069479 273.661972 
L 374.224833 273.257387 
L 374.224833 273.626422 
L 375.380188 273.223385 
L 375.380188 275.048776 
L 376.535542 274.647542 
L 376.535542 275.008725 
L 377.690896 274.609012 
L 377.690896 281.23323 
L 378.84625 280.836601 
L 378.84625 283.168467 
L 380.001605 282.773964 
L 380.001605 285.691845 
L 383.467667 284.519502 
L 383.467667 286.730873 
L 384.623022 286.343559 
L 384.623022 288.504915 
L 386.93373 287.73589 
L 386.93373 288.040867 
L 388.089084 287.658366 
L 388.089084 290.063817 
L 389.244439 289.683599 
L 389.244439 289.980064 
L 390.399793 289.601198 
L 390.399793 289.896847 
L 391.555147 289.519325 
L 391.555147 290.693053 
L 392.710501 290.31726 
L 392.710501 291.188226 
L 393.865856 290.814021 
L 393.865856 291.390371 
L 395.02121 291.017609 
L 395.02121 291.590621 
L 396.176564 291.219291 
L 396.176564 295.134208 
L 397.331918 294.765967 
L 397.331918 295.31191 
L 398.487273 294.945076 
L 398.487273 295.488 
L 398.487273 295.488 
" style="fill:none;stroke:#1f77b4;stroke-linecap:square;stroke-width:1.5;"/>
   </g>
   <g id="patch_3">
    <path d="M 57.6 307.584 
L 57.6 41.472 
" style="fill:none;stroke:#000000;stroke-linecap:square;stroke-linejoin:miter;stroke-width:0.8;"/>
   </g>
   <g id="patch_4">
    <path d="M 414.72 307.584 
L 414.72 41.472 
" style="fill:none;stroke:#000000;stroke-linecap:square;stroke-linejoin:miter;stroke-width:0.8;"/>
   </g>
   <g id="patch_5">
    <path d="M 57.6 307.584 
L 414.72 307.584 
" style="fill:none;stroke:#000000;stroke-linecap:square;stroke-linejoin:miter;stroke-width:0.8;"/>
   </g>
   <g id="patch_6">
    <path d="M 57.6 41.472 
L 414.72 41.472 
" style="fill:none;stroke:#000000;stroke-linecap:square;stroke-linejoin:miter;stroke-width:0.8;"/>
   </g>
   <g id="text_16">
    <!-- Precision x Recall curve  -->
    <defs>
     <path d="M 19.671875 64.796875 
L 19.671875 37.40625 
L 32.078125 37.40625 
Q 38.96875 37.40625 42.71875 40.96875 
Q 46.484375 44.53125 46.484375 51.125 
Q 46.484375 57.671875 42.71875 61.234375 
Q 38.96875 64.796875 32.078125 64.796875 
z
M 9.8125 72.90625 
L 32.078125 72.90625 
Q 44.34375 72.90625 50.609375 67.359375 
Q 56.890625 61.8125 56.890625 51.125 
Q 56.890625 40.328125 50.609375 34.8125 
Q 44.34375 29.296875 32.078125 29.296875 
L 19.671875 29.296875 
L 19.671875 0 
L 9.8125 0 
z
" id="DejaVuSans-50"/>
     <path id="DejaVuSans-20"/>
     <path d="M 54.890625 54.6875 
L 35.109375 28.078125 
L 55.90625 0 
L 45.3125 0 
L 29.390625 21.484375 
L 13.484375 0 
L 2.875 0 
L 24.125 28.609375 
L 4.6875 54.6875 
L 15.28125 54.6875 
L 29.78125 35.203125 
L 44.28125 54.6875 
z
" id="DejaVuSans-78"/>
     <path d="M 44.390625 34.1875 
Q 47.5625 33.109375 50.5625 29.59375 
Q 53.5625 26.078125 56.59375 19.921875 
L 66.609375 0 
L 56 0 
L 46.6875 18.703125 
Q 43.0625 26.03125 39.671875 28.421875 
Q 36.28125 30.8125 30.421875 30.8125 
L 19.671875 30.8125 
L 19.671875 0 
L 9.8125 0 
L 9.8125 72.90625 
L 32.078125 72.90625 
Q 44.578125 72.90625 50.734375 67.671875 
Q 56.890625 62.453125 56.890625 51.90625 
Q 56.890625 45.015625 53.6875 40.46875 
Q 50.484375 35.9375 44.390625 34.1875 
z
M 19.671875 64.796875 
L 19.671875 38.921875 
L 32.078125 38.921875 
Q 39.203125 38.921875 42.84375 42.21875 
Q 46.484375 45.515625 46.484375 51.90625 
Q 46.484375 58.296875 42.84375 61.546875 
Q 39.203125 64.796875 32.078125 64.796875 
z
" id="DejaVuSans-52"/>
     <path d="M 8.5 21.578125 
L 8.5 54.6875 
L 17.484375 54.6875 
L 17.484375 21.921875 
Q 17.484375 14.15625 20.5 10.265625 
Q 23.53125 6.390625 29.59375 6.390625 
Q 36.859375 6.390625 41.078125 11.03125 
Q 45.3125 15.671875 45.3125 23.6875 
L 45.3125 54.6875 
L 54.296875 54.6875 
L 54.296875 0 
L 45.3125 0 
L 45.3125 8.40625 
Q 42.046875 3.421875 37.71875 1 
Q 33.40625 -1.421875 27.6875 -1.421875 
Q 18.265625 -1.421875 13.375 4.4375 
Q 8.5 10.296875 8.5 21.578125 
z
M 31.109375 56 
z
" id="DejaVuSans-75"/>
     <path d="M 2.984375 54.6875 
L 12.5 54.6875 
L 29.59375 8.796875 
L 46.6875 54.6875 
L 56.203125 54.6875 
L 35.6875 0 
L 23.484375 0 
z
" id="DejaVuSans-76"/>
    </defs>
    <g transform="translate(133.7325 16.659675)scale(0.168 -0.168)">
     <use xlink:href="#DejaVuSans-50"/>
     <use x="60.287109" xlink:href="#DejaVuSans-72"/>
     <use x="101.369141" xlink:href="#DejaVuSans-65"/>
     <use x="162.892578" xlink:href="#DejaVuSans-63"/>
     <use x="217.873047" xlink:href="#DejaVuSans-69"/>
     <use x="245.65625" xlink:href="#DejaVuSans-73"/>
     <use x="297.755859" xlink:href="#DejaVuSans-69"/>
     <use x="325.539062" xlink:href="#DejaVuSans-6f"/>
     <use x="386.720703" xlink:href="#DejaVuSans-6e"/>
     <use x="450.099609" xlink:href="#DejaVuSans-20"/>
     <use x="481.886719" xlink:href="#DejaVuSans-78"/>
     <use x="541.066406" xlink:href="#DejaVuSans-20"/>
     <use x="572.853516" xlink:href="#DejaVuSans-52"/>
     <use x="642.273438" xlink:href="#DejaVuSans-65"/>
     <use x="703.796875" xlink:href="#DejaVuSans-63"/>
     <use x="758.777344" xlink:href="#DejaVuSans-61"/>
     <use x="820.056641" xlink:href="#DejaVuSans-6c"/>
     <use x="847.839844" xlink:href="#DejaVuSans-6c"/>
     <use x="875.623047" xlink:href="#DejaVuSans-20"/>
     <use x="907.410156" xlink:href="#DejaVuSans-63"/>
     <use x="962.390625" xlink:href="#DejaVuSans-75"/>
     <use x="1025.769531" xlink:href="#DejaVuSans-72"/>
     <use x="1066.882812" xlink:href="#DejaVuSans-76"/>
     <use x="1126.0625" xlink:href="#DejaVuSans-65"/>
     <use x="1187.585938" xlink:href="#DejaVuSans-20"/>
    </g>
    <!-- Class: person, AP₅₀: 18.24% -->
    <defs>
     <path d="M 64.40625 67.28125 
L 64.40625 56.890625 
Q 59.421875 61.53125 53.78125 63.8125 
Q 48.140625 66.109375 41.796875 66.109375 
Q 29.296875 66.109375 22.65625 58.46875 
Q 16.015625 50.828125 16.015625 36.375 
Q 16.015625 21.96875 22.65625 14.328125 
Q 29.296875 6.6875 41.796875 6.6875 
Q 48.140625 6.6875 53.78125 8.984375 
Q 59.421875 11.28125 64.40625 15.921875 
L 64.40625 5.609375 
Q 59.234375 2.09375 53.4375 0.328125 
Q 47.65625 -1.421875 41.21875 -1.421875 
Q 24.65625 -1.421875 15.125 8.703125 
Q 5.609375 18.84375 5.609375 36.375 
Q 5.609375 53.953125 15.125 64.078125 
Q 24.65625 74.21875 41.21875 74.21875 
Q 47.75 74.21875 53.53125 72.484375 
Q 59.328125 70.75 64.40625 67.28125 
z
" id="DejaVuSans-43"/>
     <path d="M 11.71875 12.40625 
L 22.015625 12.40625 
L 22.015625 0 
L 11.71875 0 
z
M 11.71875 51.703125 
L 22.015625 51.703125 
L 22.015625 39.3125 
L 11.71875 39.3125 
z
" id="DejaVuSans-3a"/>
     <path d="M 11.71875 12.40625 
L 22.015625 12.40625 
L 22.015625 4 
L 14.015625 -11.625 
L 7.71875 -11.625 
L 11.71875 4 
z
" id="DejaVuSans-2c"/>
     <path d="M 34.1875 63.1875 
L 20.796875 26.90625 
L 47.609375 26.90625 
z
M 28.609375 72.90625 
L 39.796875 72.90625 
L 67.578125 0 
L 57.328125 0 
L 50.6875 18.703125 
L 17.828125 18.703125 
L 11.1875 0 
L 0.78125 0 
z
" id="DejaVuSans-41"/>
     <path d="M 6.9375 40.390625 
L 31.84375 40.390625 
L 31.84375 35.75 
L 12.75 35.75 
L 12.75 25.796875 
Q 14.109375 26.234375 15.53125 26.421875 
Q 16.890625 26.625 18.265625 26.625 
Q 26.125 26.625 30.71875 22.859375 
Q 35.296875 19.15625 35.296875 12.75 
Q 35.296875 6.15625 30.5625 2.5 
Q 25.875 -1.109375 17.28125 -1.109375 
Q 14.359375 -1.109375 11.28125 -0.671875 
Q 8.203125 -0.234375 4.984375 0.640625 
L 4.984375 6.15625 
Q 7.765625 4.84375 10.796875 4.15625 
Q 13.8125 3.53125 17.1875 3.53125 
Q 22.609375 3.53125 25.78125 6.015625 
Q 28.953125 8.5 28.953125 12.75 
Q 28.953125 17 25.78125 19.484375 
Q 22.609375 21.984375 17.1875 21.984375 
Q 14.65625 21.984375 12.109375 21.484375 
Q 9.578125 21 6.9375 19.984375 
z
" id="DejaVuSans-2085"/>
     <path d="M 27.828125 32.671875 
Q 25.390625 36.875 20.453125 36.875 
Q 15.53125 36.875 13.09375 32.671875 
Q 10.59375 28.46875 10.59375 20.078125 
Q 10.59375 11.625 13.09375 7.4375 
Q 15.53125 3.234375 20.453125 3.234375 
Q 25.390625 3.234375 27.828125 7.4375 
Q 30.328125 11.625 30.328125 20.078125 
Q 30.328125 28.46875 27.828125 32.671875 
z
M 20.453125 41.21875 
Q 28.328125 41.21875 32.46875 35.796875 
Q 36.625 30.375 36.625 20.078125 
Q 36.625 9.71875 32.46875 4.296875 
Q 28.328125 -1.109375 20.453125 -1.109375 
Q 12.546875 -1.109375 8.390625 4.296875 
Q 4.25 9.71875 4.25 20.078125 
Q 4.25 30.375 8.390625 35.796875 
Q 12.546875 41.21875 20.453125 41.21875 
z
" id="DejaVuSans-2080"/>
     <path d="M 72.703125 32.078125 
Q 68.453125 32.078125 66.03125 28.46875 
Q 63.625 24.859375 63.625 18.40625 
Q 63.625 12.0625 66.03125 8.421875 
Q 68.453125 4.78125 72.703125 4.78125 
Q 76.859375 4.78125 79.265625 8.421875 
Q 81.6875 12.0625 81.6875 18.40625 
Q 81.6875 24.8125 79.265625 28.4375 
Q 76.859375 32.078125 72.703125 32.078125 
z
M 72.703125 38.28125 
Q 80.421875 38.28125 84.953125 32.90625 
Q 89.5 27.546875 89.5 18.40625 
Q 89.5 9.28125 84.9375 3.921875 
Q 80.375 -1.421875 72.703125 -1.421875 
Q 64.890625 -1.421875 60.34375 3.921875 
Q 55.8125 9.28125 55.8125 18.40625 
Q 55.8125 27.59375 60.375 32.9375 
Q 64.9375 38.28125 72.703125 38.28125 
z
M 22.3125 68.015625 
Q 18.109375 68.015625 15.6875 64.375 
Q 13.28125 60.75 13.28125 54.390625 
Q 13.28125 47.953125 15.671875 44.328125 
Q 18.0625 40.71875 22.3125 40.71875 
Q 26.5625 40.71875 28.96875 44.328125 
Q 31.390625 47.953125 31.390625 54.390625 
Q 31.390625 60.6875 28.953125 64.34375 
Q 26.515625 68.015625 22.3125 68.015625 
z
M 66.40625 74.21875 
L 74.21875 74.21875 
L 28.609375 -1.421875 
L 20.796875 -1.421875 
z
M 22.3125 74.21875 
Q 30.03125 74.21875 34.609375 68.875 
Q 39.203125 63.53125 39.203125 54.390625 
Q 39.203125 45.171875 34.640625 39.84375 
Q 30.078125 34.515625 22.3125 34.515625 
Q 14.546875 34.515625 10.03125 39.859375 
Q 5.515625 45.21875 5.515625 54.390625 
Q 5.515625 63.484375 10.046875 68.84375 
Q 14.59375 74.21875 22.3125 74.21875 
z
" id="DejaVuSans-25"/>
    </defs>
    <g transform="translate(119.354062 35.472)scale(0.168 -0.168)">
     <use xlink:href="#DejaVuSans-43"/>
     <use x="69.824219" xlink:href="#DejaVuSans-6c"/>
     <use x="97.607422" xlink:href="#DejaVuSans-61"/>
     <use x="158.886719" xlink:href="#DejaVuSans-73"/>
     <use x="210.986328" xlink:href="#DejaVuSans-73"/>
     <use x="263.085938" xlink:href="#DejaVuSans-3a"/>
     <use x="296.777344" xlink:href="#DejaVuSans-20"/>
     <use x="328.564453" xlink:href="#DejaVuSans-70"/>
     <use x="392.041016" xlink:href="#DejaVuSans-65"/>
     <use x="453.564453" xlink:href="#DejaVuSans-72"/>
     <use x="494.677734" xlink:href="#DejaVuSans-73"/>
     <use x="546.777344" xlink:href="#DejaVuSans-6f"/>
     <use x="607.958984" xlink:href="#DejaVuSans-6e"/>
     <use x="671.337891" xlink:href="#DejaVuSans-2c"/>
     <use x="703.125" xlink:href="#DejaVuSans-20"/>
     <use x="734.912109" xlink:href="#DejaVuSans-41"/>
     <use x="803.320312" xlink:href="#DejaVuSans-50"/>
     <use x="863.623047" xlink:href="#DejaVuSans-2085"/>
     <use x="903.710938" xlink:href="#DejaVuSans-2080"/>
     <use x="943.798828" xlink:href="#DejaVuSans-3a"/>
     <use x="977.490234" xlink:href="#DejaVuSans-20"/>
     <use x="1009.277344" xlink:href="#DejaVuSans-31"/>
     <use x="1072.900391" xlink:href="#DejaVuSans-38"/>
     <use x="1136.523438" xlink:href="#DejaVuSans-2e"/>
     <use x="1168.310547" xlink:href="#DejaVuSans-32"/>
     <use x="1231.933594" xlink:href="#DejaVuSans-34"/>
     <use x="1295.556641" xlink:href="#DejaVuSans-25"/>
    </g>
   </g>
  </g>
 </g>
 <defs>
  <clipPath id="p85a26a053a">
   <rect height="266.112" width="357.12" x="57.6" y="41.472"/>
  </clipPath>
 </defs>
</svg>
